<svg xmlns="http://www.w3.org/2000/svg" width="31.5" height="31.5" viewBox="0 0 31.5 31.5">
  <path id="Icon_awesome-whatsapp-square" data-name="Icon awesome-whatsapp-square" d="M15.75,8.634A9.266,9.266,0,0,0,7.9,22.83l.218.352L7.179,26.6l3.509-.921.337.2a9.243,9.243,0,0,0,4.718,1.294h.007a9.371,9.371,0,0,0,9.373-9.267,9.31,9.31,0,0,0-2.82-6.553A9.2,9.2,0,0,0,15.75,8.634ZM21.2,21.881A2.841,2.841,0,0,1,19.322,23.2c-.886.134-1.575.063-3.34-.7a12.516,12.516,0,0,1-4.76-4.2,5.4,5.4,0,0,1-1.139-2.883,3.12,3.12,0,0,1,.977-2.327,1.014,1.014,0,0,1,.745-.352c.183,0,.373,0,.534.007s.4-.063.626.478.788,1.927.858,2.067a.492.492,0,0,1,.021.485c-.534,1.069-1.1,1.027-.816,1.519a7.591,7.591,0,0,0,3.79,3.312c.281.141.443.12.6-.07s.7-.816.879-1.09.373-.232.626-.141,1.624.766,1.905.907.464.211.534.323a2.474,2.474,0,0,1-.169,1.343ZM28.125,2.25H3.375A3.376,3.376,0,0,0,0,5.625v24.75A3.376,3.376,0,0,0,3.375,33.75h24.75A3.376,3.376,0,0,0,31.5,30.375V5.625A3.376,3.376,0,0,0,28.125,2.25Zm-12.382,26.8a11.14,11.14,0,0,1-5.33-1.357L4.5,29.25l1.582-5.78A11.171,11.171,0,1,1,27,17.909,11.254,11.254,0,0,1,15.743,29.053Z" transform="translate(0 -2.25)" fill="#25d366"/>
</svg>
