<svg xmlns="http://www.w3.org/2000/svg" width="286" height="83.959" viewBox="0 0 286 83.959">
  <g id="Group_13" data-name="Group 13" transform="translate(-162 -14)">
    <text id="Diametheus" transform="translate(285 66)" fill="#ede8e4" font-size="26" font-family="OpenSans-ExtraBold, Open Sans" font-weight="800"><tspan x="0" y="0">Diametheus</tspan></text>
    <g id="diametheus_logo_white" transform="translate(162 13.993)">
      <path id="Path_236" data-name="Path 236" d="M212.772,73.536c-.723-.978-1.18-1.6-1.792-2.427.625-.37,1.2-.73,1.789-1.052q7.449-4.03,14.9-8.042c2.952-1.584,5.944-3.093,8.863-4.737a4.208,4.208,0,0,0,1.98-1.91c.726-2.29,2.713-2.71,4.5-3.288a49.348,49.348,0,0,1,6.351-1.392,1.28,1.28,0,0,1,1.093.575c.155.558.245,1.452-.074,1.765-1.439,1.415-3.16,2.552-4.532,4.021-1.516,1.624-3.5,1.829-5.4,2.475a61.229,61.229,0,0,0-7.138,3.066c-2.037,1-3.961,2.226-5.961,3.3-2.834,1.52-5.7,2.992-8.547,4.482Q215.8,71.952,212.772,73.536Z" transform="translate(-140.045 -33.636)" fill="#ede8e4"/>
      <path id="Path_237" data-name="Path 237" d="M103.572,201.461c-4.334,3.927-6.724,10.039-13.587,11.337-.084-.588-.427-1.348-.2-1.614,1.826-2.122,1.348-4.905,2.219-7.3.978-2.676,2.206-5.063,5.184-5.887a3.409,3.409,0,0,1,4.085,1.4A14.722,14.722,0,0,0,103.572,201.461Z" transform="translate(-59.548 -131.301)" fill="#ede8e4"/>
      <path id="Path_238" data-name="Path 238" d="M164.64,212.461c.087-4.169,1.614-5.776,5.245-6.062.471-.037.925-.245,1.392-.3.878-.108,1.207.067,1.14,1.184-.212,3.466-.185,6.946-.259,10.423a7.1,7.1,0,0,1-.094,1.587c-.44,1.755-1.271,1.822-2.744.743a13.18,13.18,0,0,1-4.314-6.176A8.492,8.492,0,0,1,164.64,212.461Z" transform="translate(-109.285 -136.78)" fill="#ede8e4"/>
      <path id="Path_239" data-name="Path 239" d="M32.852,174.99c-6.314,3.211-12.443,6.291-18.539,9.441-4.25,2.2-8.449,4.489-12.675,6.724A2.193,2.193,0,0,1,0,191.32c1.005-1.14,1.8-2.643,3.046-3.355,5.78-3.288,11.663-6.4,17.554-9.481,3.45-1.809,6.983-3.46,10.49-5.164C32.2,172.781,32.885,173.638,32.852,174.99Z" transform="translate(0 -114.934)" fill="#ede8e4"/>
      <path id="Path_240" data-name="Path 240" d="M149.591,4.98A5.691,5.691,0,0,0,145.916.455c-3.517-1.5-7.81.972-10.033,4.166-1.237,1.779-1.6,4.176-2.313,6.3-2.091,6.217-2.656,12.884-5.551,18.872-.5,1.029.511,2.32,1.342,1.819a6.322,6.322,0,0,0,2.67-2.6,26.842,26.842,0,0,0,.985-5.275c.219-1.254.464-2.5.7-3.759a8.2,8.2,0,0,1,.057,3.981c-.393,1.4-.165,1.916,1.325,2.179a22.4,22.4,0,0,1,4.811,1.489,10.178,10.178,0,0,1,2.206,1.8c.323-.968.676-1.927.955-2.9A2.038,2.038,0,0,0,141.7,23.8a8.1,8.1,0,0,1-1.365-.888l.212-.635c1.241.2,2.478.393,3.873.615,0-.992-.061-1.836.013-2.666.138-1.56-.03-2.821-1.9-3.285a1.455,1.455,0,0,1-1.157-1.916c.44-1.537.874-3.08,1.177-4.156,1.308.962,2.542,1.943,3.853,2.8,1.069.7,1.738.208,2.222-.891A14.4,14.4,0,0,0,149.591,4.98Zm-15.063,14.03c-.188-.124-.377-.252-.565-.377l3.944-6.1C139.205,16.257,135.742,16.909,134.528,19.011Z" transform="translate(-84.889 0)" fill="#ede8e4"/>
      <g id="Group_11" data-name="Group 11" transform="translate(34.413 30.74)">
        <path id="Path_241" data-name="Path 241" d="M143.9,132.88l-3.144,6.852-3.14,6.855h12.1l-2.9-6.855Z" transform="translate(-125.763 -118.939)" fill="#ede8e4"/>
        <path id="Path_242" data-name="Path 242" d="M136.052,99.806a17.526,17.526,0,0,0-9.952-7.669c-4.583-1.372-9.377-.625-13.916.891a9.082,9.082,0,0,0-3.739,2.29c-2.575,2.821-4.828,5.736-5.538,9.831-1.009,5.837-.891,11.287,2.508,16.32,3.561,5.272,8.59,8.036,15.234,8.711,2.189-.39,4.67-.74,7.1-1.284a14.472,14.472,0,0,0,11.586-12.027A23.946,23.946,0,0,0,136.052,99.806Zm-15.039,20.429h-8.725l4.364-9.545,4.364-9.545h.491l4.119,9.545,4.119,9.545Z" transform="translate(-102.354 -91.415)" fill="#ede8e4"/>
      </g>
    </g>
  </g>
</svg>
